<svg width="484" height="464" viewBox="0 0 484 464" fill="none" xmlns="http://www.w3.org/2000/svg">
<path d="M157.748 391.009L125.729 433.594L110.133 421.868C106.335 419.012 103.435 415.961 101.432 412.714C99.4298 409.466 98.2098 406.177 97.7722 402.845C97.2963 399.485 97.5162 396.197 98.4321 392.982C99.3191 389.805 100.787 386.855 102.835 384.131L103.787 382.865C105.719 380.295 108.088 378.142 110.894 376.408C113.699 374.674 116.811 373.531 120.229 372.978C123.609 372.396 127.166 372.578 130.899 373.524C134.603 374.507 138.355 376.427 142.153 379.283L157.748 391.009ZM116.236 412.674L122.911 417.693L141.69 392.717L135.015 387.698C131.063 384.727 127.09 383.541 123.096 384.141C119.101 384.741 115.691 386.921 112.864 390.681C109.893 394.633 108.731 398.534 109.379 402.384C109.998 406.273 112.284 409.703 116.236 412.674Z" fill="#6E6D7A"/>
<path d="M111.721 352.492L68.7823 382.804L50.0141 356.217L58.0137 350.57L70.1383 367.745L79.2555 361.309L67.7953 345.075L75.7949 339.428L87.2551 355.662L97.0782 348.728L84.663 331.14L92.6626 325.493L111.721 352.492Z" fill="#6E6D7A"/>
<path d="M81.9123 295.916C83.4338 300.418 84.02 304.476 83.6708 308.09C83.3062 311.658 82.1424 314.661 80.1793 317.098C78.2009 319.489 75.5973 321.231 72.3688 322.322L68.7032 311.476C70.6131 310.831 72.0343 309.489 72.9669 307.451C73.8386 305.383 73.6828 302.599 72.4994 299.097C71.4543 296.005 70.0639 293.84 68.3283 292.603C66.5473 291.381 64.7018 291.093 62.792 291.738C61.2004 292.276 60.1804 293.381 59.732 295.052C59.2382 296.739 59.3697 299.152 60.1266 302.291L61.0535 306.158C62.3195 311.253 62.1333 315.724 60.4948 319.571C58.8109 323.433 55.7408 326.118 51.2844 327.624C48.1013 328.7 45.0966 328.879 42.2703 328.162C39.4286 327.4 36.9328 325.862 34.7829 323.549C32.5875 321.251 30.8597 318.238 29.5994 314.509C28.2777 310.598 27.8302 307.025 28.2568 303.79C28.6681 300.51 29.848 297.704 31.7963 295.374C33.6992 293.059 36.2649 291.356 39.4935 290.264L43.1821 301.178C41.3632 301.793 39.9945 302.99 39.076 304.77C38.1575 306.55 38.1363 308.735 39.0123 311.327C39.8576 313.828 41.1017 315.485 42.7444 316.298C44.3417 317.126 45.9588 317.264 47.5958 316.71C49.0055 316.234 50.0719 315.342 50.795 314.033C51.5028 312.679 51.5557 310.812 50.9538 308.431L50.0038 304.496C49.0926 300.751 48.8048 297.276 49.1406 294.072C49.4308 290.883 50.406 288.147 52.0662 285.863C53.6655 283.549 56.0112 281.87 59.1034 280.825C62.2865 279.749 65.3674 279.645 68.3461 280.513C71.264 281.35 73.8972 283.07 76.2456 285.671C78.5941 288.272 80.4829 291.687 81.9123 295.916Z" fill="#6E6D7A"/>
<path d="M72.7957 262.926L20.453 267.7L19.3804 255.941L71.7231 251.167L72.7957 262.926Z" fill="#6E6D7A"/>
<path d="M75.6459 211.284C74.8262 215.916 73.3548 219.823 71.2317 223.006C69.0614 226.18 66.4757 228.672 63.4746 230.481C60.4819 232.242 57.3296 233.39 54.0177 233.925C50.6585 234.452 47.3719 234.431 44.1578 233.862L42.598 233.586C39.3367 233.009 36.2425 231.901 33.3153 230.262C30.3881 228.623 27.8408 226.49 25.6732 223.864C23.5139 221.191 21.9666 218.09 21.0312 214.561C20.1042 210.985 20.0213 207.046 20.7824 202.745C21.6021 198.113 23.2042 194.156 25.5887 190.873C27.9732 187.59 30.8939 185.134 34.3509 183.503C37.7607 181.864 41.4842 181.207 45.5214 181.531L43.4638 193.159C40.5443 193.13 37.9968 194.165 35.8214 196.267C33.646 198.368 32.2488 201.167 31.6299 204.665C31.0946 207.69 31.3435 210.415 32.3768 212.84C33.3711 215.209 35.0204 217.183 37.3248 218.761C39.5818 220.33 42.3174 221.399 45.5315 221.968C50.5889 222.863 54.8921 222.235 58.4411 220.084C61.9985 217.887 64.2121 214.33 65.082 209.414C65.5504 206.768 65.5196 204.325 64.9895 202.086C64.4122 199.839 63.4761 197.967 62.181 196.471L57.8562 195.706L55.4599 209.247L47.0939 207.767L52.1374 179.266L60.5035 180.746L59.7507 185L68.5421 186.556C71.7412 189.413 73.9626 192.974 75.2062 197.24C76.4027 201.498 76.5492 206.179 75.6459 211.284Z" fill="#6E6D7A"/>
<path d="M83.3303 174.038L38.6454 146.365L48.8429 129.899L95.8114 135.697L96.3422 134.84L59.7985 112.209L65.6364 102.782L110.321 130.455L100.048 147.044L53.0795 141.246L52.5488 142.103L89.0924 164.734L83.3303 174.038Z" fill="#6E6D7A"/>
<path d="M122.026 119.506L88.7688 78.8054L113.97 58.2135L120.166 65.796L103.885 79.0988L110.947 87.7407L126.335 75.1669L132.531 82.7494L117.142 95.3232L124.751 104.634L141.421 91.0126L147.617 98.5952L122.026 119.506Z" fill="#6E6D7A"/>
<path d="M158.765 91.4784L139.315 41.8753L157.48 34.7525C161.904 33.0178 166.024 32.1501 169.839 32.1494C173.654 32.1487 177.094 32.8362 180.16 34.212C183.271 35.5703 185.954 37.4827 188.21 39.9493C190.449 42.3713 192.19 45.1686 193.434 48.3415L194.012 49.8161C195.186 52.8102 195.776 55.9563 195.78 59.2543C195.784 62.5524 195.125 65.8013 193.801 69.0012C192.523 72.1835 190.502 75.1157 187.738 77.7976C184.957 80.4349 181.354 82.6209 176.93 84.3556L158.765 91.4784ZM162.105 44.7717L154.329 47.8206L165.736 76.9122L173.512 73.8633C178.115 72.0585 181.209 69.2986 182.794 65.5835C184.379 61.8684 184.313 57.8212 182.596 53.4418C180.791 48.839 178.08 45.8033 174.462 44.3346C170.827 42.8212 166.708 42.9669 162.105 44.7717Z" fill="#6E6D7A"/>
<path d="M235.809 70.6054L239.883 17.4092L259.553 18.9156C265.584 19.3774 270.105 20.9994 273.117 23.7816C276.178 26.5674 277.528 30.3054 277.169 34.9957L277.087 36.0726C276.903 38.4655 276.293 40.4648 275.255 42.0702C274.269 43.6315 272.946 44.8781 271.286 45.8101C273.411 46.9837 275.048 48.5533 276.197 50.5188C277.346 52.4843 277.809 54.9268 277.585 57.8462L277.508 58.8513C277.145 63.5894 275.262 67.1279 271.857 69.4667C268.453 71.8056 263.687 72.7405 257.561 72.2713L235.809 70.6054ZM259.568 28.1597L250.666 27.4779L249.687 40.2565L258.589 40.9383C260.791 41.1069 262.438 40.6553 263.531 39.5837C264.672 38.5157 265.315 37.0245 265.462 35.1101C265.616 33.1 265.211 31.4803 264.246 30.251C263.328 29.0254 261.769 28.3283 259.568 28.1597ZM259.846 49.9887L249.005 49.1585L247.999 62.296L258.839 63.1262C261.041 63.2948 262.734 62.8709 263.919 61.8544C265.108 60.79 265.785 59.181 265.95 57.0273C266.283 52.6721 264.249 50.3259 259.846 49.9887Z" fill="#6E6D7A"/>
<path d="M300.224 81.4186L307.662 62.9135L305.257 61.9468L303.191 25.9645L314.414 30.4756L315.507 56.5223L317.645 57.3816L335.458 38.9339L346.08 43.2033L320.823 68.2033L318.418 67.2366L310.98 85.7418L300.224 81.4186Z" fill="#6E6D7A"/>
<path d="M361.697 122.408C357.543 118.145 355.447 113.587 355.407 108.732C355.402 103.912 357.616 99.3415 362.051 95.02L363.959 93.1608L372.099 101.514L369.727 103.826C368.043 105.467 367.171 107.255 367.112 109.189C367.087 111.158 367.912 113.001 369.587 114.72C371.228 116.405 373.016 117.242 374.951 117.233C376.92 117.259 378.746 116.451 380.43 114.809L398.272 97.4231L383.7 82.4691L391.074 75.2834L413.887 98.6941L389.135 122.814C384.701 127.135 380.074 129.231 375.256 129.101C370.438 128.971 365.918 126.74 361.697 122.408Z" fill="#6E6D7A"/>
<path d="M395.082 170.313C393.089 165.999 392.088 161.888 392.08 157.979C392.136 154.093 392.901 150.541 394.374 147.322C395.892 144.083 397.825 141.287 400.175 138.932C402.588 136.602 405.145 134.812 407.847 133.564L409.285 132.9C412.248 131.531 415.409 130.705 418.768 130.422C422.147 130.183 425.506 130.588 428.846 131.636C432.229 132.664 435.352 134.446 438.216 136.983C441.124 139.5 443.544 142.85 445.476 147.033C447.409 151.216 448.391 155.23 448.422 159.075C448.497 162.901 447.83 166.434 446.419 169.677C445.053 172.899 443.183 175.719 440.81 178.137C438.438 180.555 435.77 182.448 432.807 183.817L431.369 184.481C428.667 185.729 425.637 186.495 422.278 186.778C418.962 187.04 415.579 186.7 412.129 185.755C408.723 184.791 405.512 183.049 402.497 180.529C399.546 178.032 397.074 174.627 395.082 170.313ZM405.082 165.693C406.471 168.7 408.344 170.981 410.701 172.535C413.079 174.134 415.694 174.988 418.547 175.097C421.4 175.207 424.221 174.618 427.01 173.329C429.973 171.96 432.306 170.143 434.008 167.876C435.774 165.632 436.807 163.119 437.108 160.337C437.409 157.554 436.865 154.659 435.476 151.653C434.087 148.646 432.235 146.355 429.921 144.78C427.608 143.205 425.024 142.363 422.171 142.254C419.362 142.124 416.476 142.743 413.513 144.112C410.724 145.401 408.446 147.166 406.68 149.41C404.914 151.653 403.859 154.176 403.515 156.979C403.171 159.782 403.693 162.687 405.082 165.693Z" fill="#6E6D7A"/>
<path d="M410.997 220.637L430.86 218.84L430.626 216.259L461.728 198.047L462.818 210.094L440.121 222.919L440.328 225.213L464.861 232.681L465.892 244.083L432.138 232.967L431.904 230.385L412.041 232.182L410.997 220.637Z" fill="#6E6D7A"/>
<path d="M409.184 279.314L459.156 297.796L452.387 316.096C450.739 320.553 448.646 324.206 446.108 327.055C443.571 329.903 440.768 332.014 437.702 333.388C434.618 334.806 431.405 335.537 428.063 335.58C424.765 335.64 421.518 335.079 418.322 333.897L416.836 333.348C413.82 332.232 411.079 330.579 408.614 328.388C406.149 326.197 404.162 323.543 402.654 320.426C401.129 317.354 400.284 313.894 400.121 310.047C400.002 306.216 400.767 302.072 402.416 297.615L409.184 279.314ZM441.831 312.883L444.728 305.05L415.42 294.21L412.523 302.044C410.808 306.681 410.81 310.827 412.529 314.482C414.247 318.137 417.313 320.781 421.725 322.412C426.362 324.127 430.432 324.123 433.936 322.399C437.484 320.692 440.116 317.52 441.831 312.883Z" fill="#6E6D7A"/>
<path d="M385.463 334.444L426.802 366.904L406.704 392.5L399.003 386.453L411.986 369.917L403.209 363.025L390.936 378.655L383.235 372.608L395.507 356.978L386.05 349.552L372.755 366.484L365.053 360.437L385.463 334.444Z" fill="#6E6D7A"/>
<path d="M345.26 376.992L356.836 393.233L358.947 391.729L390.366 409.388L380.516 416.408L357.989 403.286L356.113 404.624L362.047 429.572L352.724 436.216L345.285 401.466L347.396 399.961L335.821 383.72L345.26 376.992Z" fill="#6E6D7A"/>
<path fill-rule="evenodd" clip-rule="evenodd" d="M201.84 179V214.723H207.316C214.495 214.723 221.073 212.089 226.179 207.714V253.455C210.963 254.722 199 267.769 199 283.677C199 299.585 210.963 312.631 226.179 313.899V314H232.264C233.629 314 234.982 313.947 236.321 313.843C263.55 311.722 285 288.426 285 260V183.569C285 181.046 283.002 179 280.538 179H201.84ZM236.321 189.621C236.334 189.542 236.346 189.463 236.358 189.385H274.858V260C274.858 275.355 267.109 288.857 255.397 296.629C257.212 292.701 258.226 288.31 258.226 283.677C258.226 269.66 248.938 257.864 236.321 254.391V189.621ZM228.613 303.615C239.367 303.615 248.085 294.689 248.085 283.677C248.085 272.665 239.367 263.738 228.613 263.738C217.859 263.738 209.142 272.665 209.142 283.677C209.142 294.689 217.859 303.615 228.613 303.615ZM225.911 189.8C224.124 196.524 218.953 201.819 212.387 203.648V189.8H225.911Z" fill="#6E6D7A"/>
<path d="M242 384.583L231.25 413.25L202.583 424L231.25 434.75L242 463.416L252.75 434.75L281.417 424L252.75 413.25L242 384.583Z" fill="#6E6D7A"/>
<path d="M305 425.666L300 439L286.667 444L300 449L305 462.333L310 449L323.333 444L310 439L305 425.666Z" fill="#6E6D7A"/>
<path d="M179 425.666L174 439L160.667 444L174 449L179 462.333L184 449L197.333 444L184 439L179 425.666Z" fill="#6E6D7A"/>
</svg>
